<svg height="1200" preserveAspectRatio="none" viewBox="0 0 1200 1200" width="1200" xmlns="http://www.w3.org/2000/svg">
<path d="M893.9328838989543,677.4905854186029 L828.0464740894256,422.1267047347832" fill="none" stroke="#90cdf4" stroke-width="1"/>
<text dominant-baseline="middle" fill="#000000" font-family="&apos;JetBrains Mono&apos;, ui-monospace, SFMono-Regular, Menlo, Monaco, Consolas, &apos;Liberation Mono&apos;, &apos;Courier New&apos;, system-ui, -apple-system, BlinkMacSystemFont, &apos;Segoe UI&apos;, Roboto, Inter, &apos;Helvetica Neue&apos;, Arial, sans-serif" font-size="14" text-anchor="middle" transform="rotate(75.53263972036954 874.449791367607 546.3358028033753)" x="874.449791367607" y="546.3358028033753">
40G
</text>
<path d="M828.0464740894256,422.1267047347832 L659.9926353112029,215.98776185651428" fill="none" stroke="#90cdf4" stroke-width="1"/>
<text dominant-baseline="middle" fill="#000000" font-family="&apos;JetBrains Mono&apos;, ui-monospace, SFMono-Regular, Menlo, Monaco, Consolas, &apos;Liberation Mono&apos;, &apos;Courier New&apos;, system-ui, -apple-system, BlinkMacSystemFont, &apos;Segoe UI&apos;, Roboto, Inter, &apos;Helvetica Neue&apos;, Arial, sans-serif" font-size="14" text-anchor="middle" transform="rotate(50.81151601072128 754.7937528272371 310.2736171108323)" x="754.7937528272371" y="310.2736171108323">
40G
</text>
<path d="M659.9926353112029,215.98776185651428 L410.48929712337736,117.8126767075064" fill="none" stroke="#90cdf4" stroke-width="1"/>
<text dominant-baseline="middle" fill="#000000" font-family="&apos;JetBrains Mono&apos;, ui-monospace, SFMono-Regular, Menlo, Monaco, Consolas, &apos;Liberation Mono&apos;, &apos;Courier New&apos;, system-ui, -apple-system, BlinkMacSystemFont, &apos;Segoe UI&apos;, Roboto, Inter, &apos;Helvetica Neue&apos;, Arial, sans-serif" font-size="14" text-anchor="middle" transform="rotate(21.47874717533685 540.330868402202 153.96468085841212)" x="540.330868402202" y="153.96468085841212">
40G
</text>
<path d="M410.48929712337736,117.8126767075064 L193.42927758486695,261.95433262285695" fill="none" stroke="#90cdf4" stroke-width="1"/>
<text dominant-baseline="middle" fill="#000000" font-family="&apos;JetBrains Mono&apos;, ui-monospace, SFMono-Regular, Menlo, Monaco, Consolas, &apos;Liberation Mono&apos;, &apos;Courier New&apos;, system-ui, -apple-system, BlinkMacSystemFont, &apos;Segoe UI&apos;, Roboto, Inter, &apos;Helvetica Neue&apos;, Arial, sans-serif" font-size="14" text-anchor="middle" transform="rotate(-33.58668901128502 294.2693321341989 178.3033558200271)" x="294.2693321341989" y="178.3033558200271">
40G
</text>
<path d="M193.42927758486695,261.95433262285695 L126.68845951861056,524.613494882732" fill="none" stroke="#90cdf4" stroke-width="1"/>
<text dominant-baseline="middle" fill="#000000" font-family="&apos;JetBrains Mono&apos;, ui-monospace, SFMono-Regular, Menlo, Monaco, Consolas, &apos;Liberation Mono&apos;, &apos;Courier New&apos;, system-ui, -apple-system, BlinkMacSystemFont, &apos;Segoe UI&apos;, Roboto, Inter, &apos;Helvetica Neue&apos;, Arial, sans-serif" font-size="14" text-anchor="middle" transform="rotate(-75.74305571661081 146.58609312818373 389.86052640298874)" x="146.58609312818373" y="389.86052640298874">
40G
</text>
<path d="M126.68845951861056,524.613494882732 L201.24699315281077,796.6933451612366" fill="none" stroke="#90cdf4" stroke-width="1"/>
<text dominant-baseline="middle" fill="#000000" font-family="&apos;JetBrains Mono&apos;, ui-monospace, SFMono-Regular, Menlo, Monaco, Consolas, &apos;Liberation Mono&apos;, &apos;Courier New&apos;, system-ui, -apple-system, BlinkMacSystemFont, &apos;Segoe UI&apos;, Roboto, Inter, &apos;Helvetica Neue&apos;, Arial, sans-serif" font-size="14" text-anchor="middle" transform="rotate(74.67533453914767 150.56108219385192 664.327266972243)" x="150.56108219385192" y="664.327266972243">
40G
</text>
<path d="M201.24699315281077,796.6933451612366 L378.5347622109481,1009.3293299755182" fill="none" stroke="#90cdf4" stroke-width="1"/>
<text dominant-baseline="middle" fill="#000000" font-family="&apos;JetBrains Mono&apos;, ui-monospace, SFMono-Regular, Menlo, Monaco, Consolas, &apos;Liberation Mono&apos;, &apos;Courier New&apos;, system-ui, -apple-system, BlinkMacSystemFont, &apos;Segoe UI&apos;, Roboto, Inter, &apos;Helvetica Neue&apos;, Arial, sans-serif" font-size="14" text-anchor="middle" transform="rotate(50.179942619813 279.2141542693125 911.9131820812806)" x="279.2141542693125" y="911.9131820812806">
40G
</text>
<path d="M378.5347622109481,1009.3293299755182 L626.3206206350362,1082.1873232924936" fill="none" stroke="#90cdf4" stroke-width="1"/>
<text dominant-baseline="middle" fill="#000000" font-family="&apos;JetBrains Mono&apos;, ui-monospace, SFMono-Regular, Menlo, Monaco, Consolas, &apos;Liberation Mono&apos;, &apos;Courier New&apos;, system-ui, -apple-system, BlinkMacSystemFont, &apos;Segoe UI&apos;, Roboto, Inter, &apos;Helvetica Neue&apos;, Arial, sans-serif" font-size="14" text-anchor="middle" transform="rotate(16.38524118488599 498.5063238293179 1059.0946730135674)" x="498.5063238293179" y="1059.0946730135674">
40G
</text>
<path d="M626.3206206350362,1082.1873232924936 L830.7319374351829,923.5791229807191" fill="none" stroke="#90cdf4" stroke-width="1"/>
<text dominant-baseline="middle" fill="#000000" font-family="&apos;JetBrains Mono&apos;, ui-monospace, SFMono-Regular, Menlo, Monaco, Consolas, &apos;Liberation Mono&apos;, &apos;Courier New&apos;, system-ui, -apple-system, BlinkMacSystemFont, &apos;Segoe UI&apos;, Roboto, Inter, &apos;Helvetica Neue&apos;, Arial, sans-serif" font-size="14" text-anchor="middle" transform="rotate(-37.80884178545979 737.0479388493158 1013.8657807882329)" x="737.0479388493158" y="1013.8657807882329">
40G
</text>
<path d="M830.7319374351829,923.5791229807191 L893.9328838989543,677.4905854186029" fill="none" stroke="#90cdf4" stroke-width="1"/>
<text dominant-baseline="middle" fill="#000000" font-family="&apos;JetBrains Mono&apos;, ui-monospace, SFMono-Regular, Menlo, Monaco, Consolas, &apos;Liberation Mono&apos;, &apos;Courier New&apos;, system-ui, -apple-system, BlinkMacSystemFont, &apos;Segoe UI&apos;, Roboto, Inter, &apos;Helvetica Neue&apos;, Arial, sans-serif" font-size="14" text-anchor="middle" transform="rotate(-75.59647263777046 875.7963837610482 803.992698482585)" x="875.7963837610482" y="803.992698482585">
40G
</text>
<path d="M1064.6373735451816,678.2575989200429 L998.1349034725288,407.27141250522493" fill="none" stroke="#90cdf4" stroke-width="1"/>
<text dominant-baseline="middle" fill="#000000" font-family="&apos;JetBrains Mono&apos;, ui-monospace, SFMono-Regular, Menlo, Monaco, Consolas, &apos;Liberation Mono&apos;, &apos;Courier New&apos;, system-ui, -apple-system, BlinkMacSystemFont, &apos;Segoe UI&apos;, Roboto, Inter, &apos;Helvetica Neue&apos;, Arial, sans-serif" font-size="14" text-anchor="middle" transform="rotate(76.21159020611591 1044.886457799527 539.4514048070962)" x="1044.886457799527" y="539.4514048070962">
10G
</text>
<path d="M998.1349034725288,407.27141250522493 L824.4586208430894,190.70865279776802" fill="none" stroke="#90cdf4" stroke-width="1"/>
<text dominant-baseline="middle" fill="#000000" font-family="&apos;JetBrains Mono&apos;, ui-monospace, SFMono-Regular, Menlo, Monaco, Consolas, &apos;Liberation Mono&apos;, &apos;Courier New&apos;, system-ui, -apple-system, BlinkMacSystemFont, &apos;Segoe UI&apos;, Roboto, Inter, &apos;Helvetica Neue&apos;, Arial, sans-serif" font-size="14" text-anchor="middle" transform="rotate(51.271522210677915 922.141132624032 290.2932005988653)" x="922.141132624032" y="290.2932005988653">
10G
</text>
<path d="M824.4586208430894,190.70865279776802 L573.2622782359035,103.67929934611448" fill="none" stroke="#90cdf4" stroke-width="1"/>
<text dominant-baseline="middle" fill="#000000" font-family="&apos;JetBrains Mono&apos;, ui-monospace, SFMono-Regular, Menlo, Monaco, Consolas, &apos;Liberation Mono&apos;, &apos;Courier New&apos;, system-ui, -apple-system, BlinkMacSystemFont, &apos;Segoe UI&apos;, Roboto, Inter, &apos;Helvetica Neue&apos;, Arial, sans-serif" font-size="14" text-anchor="middle" transform="rotate(19.109128135465767 703.411168291127 134.05905249378839)" x="703.411168291127" y="134.05905249378839">
10G
</text>
<path d="M573.2622782359035,103.67929934611448 L359.33556201152453,249.07229923167273" fill="none" stroke="#90cdf4" stroke-width="1"/>
<text dominant-baseline="middle" fill="#000000" font-family="&apos;JetBrains Mono&apos;, ui-monospace, SFMono-Regular, Menlo, Monaco, Consolas, &apos;Liberation Mono&apos;, &apos;Courier New&apos;, system-ui, -apple-system, BlinkMacSystemFont, &apos;Segoe UI&apos;, Roboto, Inter, &apos;Helvetica Neue&apos;, Arial, sans-serif" font-size="14" text-anchor="middle" transform="rotate(-34.20156710308436 458.4851360323478 164.87884157244224)" x="458.4851360323478" y="164.87884157244224">
10G
</text>
<path d="M359.33556201152453,249.07229923167273 L293.65675929980733,494.39353058644696" fill="none" stroke="#90cdf4" stroke-width="1"/>
<text dominant-baseline="middle" fill="#000000" font-family="&apos;JetBrains Mono&apos;, ui-monospace, SFMono-Regular, Menlo, Monaco, Consolas, &apos;Liberation Mono&apos;, &apos;Courier New&apos;, system-ui, -apple-system, BlinkMacSystemFont, &apos;Segoe UI&apos;, Roboto, Inter, &apos;Helvetica Neue&apos;, Arial, sans-serif" font-size="14" text-anchor="middle" transform="rotate(-75.01194711451899 313.0681641639339 368.13789491212094)" x="313.0681641639339" y="368.13789491212094">
10G
</text>
<path d="M293.65675929980733,494.39353058644696 L365.69085841383946,747.4982021301249" fill="none" stroke="#90cdf4" stroke-width="1"/>
<text dominant-baseline="middle" fill="#000000" font-family="&apos;JetBrains Mono&apos;, ui-monospace, SFMono-Regular, Menlo, Monaco, Consolas, &apos;Liberation Mono&apos;, &apos;Courier New&apos;, system-ui, -apple-system, BlinkMacSystemFont, &apos;Segoe UI&apos;, Roboto, Inter, &apos;Helvetica Neue&apos;, Arial, sans-serif" font-size="14" text-anchor="middle" transform="rotate(74.11354020637415 316.30383125807714 624.7509889015665)" x="316.30383125807714" y="624.7509889015665">
10G
</text>
<path d="M365.69085841383946,747.4982021301249 L538.3533191173995,953.4885088846559" fill="none" stroke="#90cdf4" stroke-width="1"/>
<text dominant-baseline="middle" fill="#000000" font-family="&apos;JetBrains Mono&apos;, ui-monospace, SFMono-Regular, Menlo, Monaco, Consolas, &apos;Liberation Mono&apos;, &apos;Courier New&apos;, system-ui, -apple-system, BlinkMacSystemFont, &apos;Segoe UI&apos;, Roboto, Inter, &apos;Helvetica Neue&apos;, Arial, sans-serif" font-size="14" text-anchor="middle" transform="rotate(50.03003493108944 441.36869250235156 859.4231039147168)" x="441.36869250235156" y="859.4231039147168">
10G
</text>
<path d="M538.3533191173995,953.4885088846559 L785.3847037139144,1059.5964892404245" fill="none" stroke="#90cdf4" stroke-width="1"/>
<text dominant-baseline="middle" fill="#000000" font-family="&apos;JetBrains Mono&apos;, ui-monospace, SFMono-Regular, Menlo, Monaco, Consolas, &apos;Liberation Mono&apos;, &apos;Courier New&apos;, system-ui, -apple-system, BlinkMacSystemFont, &apos;Segoe UI&apos;, Roboto, Inter, &apos;Helvetica Neue&apos;, Arial, sans-serif" font-size="14" text-anchor="middle" transform="rotate(23.245089583504225 656.3828077875835 1019.3150018835095)" x="656.3828077875835" y="1019.3150018835095">
10G
</text>
<path d="M785.3847037139144,1059.5964892404245 L998.8592924747422,932.4374130066033" fill="none" stroke="#90cdf4" stroke-width="1"/>
<text dominant-baseline="middle" fill="#000000" font-family="&apos;JetBrains Mono&apos;, ui-monospace, SFMono-Regular, Menlo, Monaco, Consolas, &apos;Liberation Mono&apos;, &apos;Courier New&apos;, system-ui, -apple-system, BlinkMacSystemFont, &apos;Segoe UI&apos;, Roboto, Inter, &apos;Helvetica Neue&apos;, Arial, sans-serif" font-size="14" text-anchor="middle" transform="rotate(-30.78072447263761 899.2358417502976 1007.9596680254078)" x="899.2358417502976" y="1007.9596680254078">
10G
</text>
<path d="M998.8592924747422,932.4374130066033 L1064.6373735451816,678.2575989200429" fill="none" stroke="#90cdf4" stroke-width="1"/>
<text dominant-baseline="middle" fill="#000000" font-family="&apos;JetBrains Mono&apos;, ui-monospace, SFMono-Regular, Menlo, Monaco, Consolas, &apos;Liberation Mono&apos;, &apos;Courier New&apos;, system-ui, -apple-system, BlinkMacSystemFont, &apos;Segoe UI&apos;, Roboto, Inter, &apos;Helvetica Neue&apos;, Arial, sans-serif" font-size="14" text-anchor="middle" transform="rotate(-75.49097613704146 1045.2059164896598 808.8301350632024)" x="1045.2059164896598" y="808.8301350632024">
10G
</text>
<path d="M893.9328838989543,677.4905854186029 L1064.6373735451816,678.2575989200429" fill="none" stroke="#90cdf4" stroke-width="1"/>
<text dominant-baseline="middle" fill="#000000" font-family="&apos;JetBrains Mono&apos;, ui-monospace, SFMono-Regular, Menlo, Monaco, Consolas, &apos;Liberation Mono&apos;, &apos;Courier New&apos;, system-ui, -apple-system, BlinkMacSystemFont, &apos;Segoe UI&apos;, Roboto, Inter, &apos;Helvetica Neue&apos;, Arial, sans-serif" font-size="14" text-anchor="middle" transform="rotate(0.25744103631726534 979.2226694573155 691.7748603999138)" x="979.2226694573155" y="691.7748603999138">
10G
</text>
<path d="M828.0464740894256,422.1267047347832 L998.1349034725288,407.27141250522493" fill="none" stroke="#90cdf4" stroke-width="1"/>
<text dominant-baseline="middle" fill="#000000" font-family="&apos;JetBrains Mono&apos;, ui-monospace, SFMono-Regular, Menlo, Monaco, Consolas, &apos;Liberation Mono&apos;, &apos;Courier New&apos;, system-ui, -apple-system, BlinkMacSystemFont, &apos;Segoe UI&apos;, Roboto, Inter, &apos;Helvetica Neue&apos;, Arial, sans-serif" font-size="14" text-anchor="middle" transform="rotate(-4.991469510820781 914.3001710143601 428.5472502451762)" x="914.3001710143601" y="428.5472502451762">
10G
</text>
<path d="M659.9926353112029,215.98776185651428 L824.4586208430894,190.70865279776802" fill="none" stroke="#90cdf4" stroke-width="1"/>
<text dominant-baseline="middle" fill="#000000" font-family="&apos;JetBrains Mono&apos;, ui-monospace, SFMono-Regular, Menlo, Monaco, Consolas, &apos;Liberation Mono&apos;, &apos;Courier New&apos;, system-ui, -apple-system, BlinkMacSystemFont, &apos;Segoe UI&apos;, Roboto, Inter, &apos;Helvetica Neue&apos;, Arial, sans-serif" font-size="14" text-anchor="middle" transform="rotate(-8.738215540699395 744.3374554823755 217.0877649463253)" x="744.3374554823755" y="217.0877649463253">
10G
</text>
<path d="M410.48929712337736,117.8126767075064 L573.2622782359035,103.67929934611448" fill="none" stroke="#90cdf4" stroke-width="1"/>
<text dominant-baseline="middle" fill="#000000" font-family="&apos;JetBrains Mono&apos;, ui-monospace, SFMono-Regular, Menlo, Monaco, Consolas, &apos;Liberation Mono&apos;, &apos;Courier New&apos;, system-ui, -apple-system, BlinkMacSystemFont, &apos;Segoe UI&apos;, Roboto, Inter, &apos;Helvetica Neue&apos;, Arial, sans-serif" font-size="14" text-anchor="middle" transform="rotate(-4.96247581216779 493.07826208183906 124.59478991984128)" x="493.07826208183906" y="124.59478991984128">
10G
</text>
<path d="M193.42927758486695,261.95433262285695 L359.33556201152453,249.07229923167273" fill="none" stroke="#90cdf4" stroke-width="1"/>
<text dominant-baseline="middle" fill="#000000" font-family="&apos;JetBrains Mono&apos;, ui-monospace, SFMono-Regular, Menlo, Monaco, Consolas, &apos;Liberation Mono&apos;, &apos;Courier New&apos;, system-ui, -apple-system, BlinkMacSystemFont, &apos;Segoe UI&apos;, Roboto, Inter, &apos;Helvetica Neue&apos;, Arial, sans-serif" font-size="14" text-anchor="middle" transform="rotate(-4.439905276519263 277.4585368820323 269.37250892621796)" x="277.4585368820323" y="269.37250892621796">
10G
</text>
<path d="M126.68845951861056,524.613494882732 L293.65675929980733,494.39353058644696" fill="none" stroke="#90cdf4" stroke-width="1"/>
<text dominant-baseline="middle" fill="#000000" font-family="&apos;JetBrains Mono&apos;, ui-monospace, SFMono-Regular, Menlo, Monaco, Consolas, &apos;Liberation Mono&apos;, &apos;Courier New&apos;, system-ui, -apple-system, BlinkMacSystemFont, &apos;Segoe UI&apos;, Roboto, Inter, &apos;Helvetica Neue&apos;, Arial, sans-serif" font-size="14" text-anchor="middle" transform="rotate(-10.259030412687594 212.64834229400554 523.1821824522007)" x="212.64834229400554" y="523.1821824522007">
10G
</text>
<path d="M201.24699315281077,796.6933451612366 L365.69085841383946,747.4982021301249" fill="none" stroke="#90cdf4" stroke-width="1"/>
<text dominant-baseline="middle" fill="#000000" font-family="&apos;JetBrains Mono&apos;, ui-monospace, SFMono-Regular, Menlo, Monaco, Consolas, &apos;Liberation Mono&apos;, &apos;Courier New&apos;, system-ui, -apple-system, BlinkMacSystemFont, &apos;Segoe UI&apos;, Roboto, Inter, &apos;Helvetica Neue&apos;, Arial, sans-serif" font-size="14" text-anchor="middle" transform="rotate(-16.655116679154634 287.45306671617885 785.4135016646605)" x="287.45306671617885" y="785.4135016646605">
10G
</text>
<path d="M378.5347622109481,1009.3293299755182 L538.3533191173995,953.4885088846559" fill="none" stroke="#90cdf4" stroke-width="1"/>
<text dominant-baseline="middle" fill="#000000" font-family="&apos;JetBrains Mono&apos;, ui-monospace, SFMono-Regular, Menlo, Monaco, Consolas, &apos;Liberation Mono&apos;, &apos;Courier New&apos;, system-ui, -apple-system, BlinkMacSystemFont, &apos;Segoe UI&apos;, Roboto, Inter, &apos;Helvetica Neue&apos;, Arial, sans-serif" font-size="14" text-anchor="middle" transform="rotate(-19.259484114957008 463.02921246405856 994.5318557678851)" x="463.02921246405856" y="994.5318557678851">
10G
</text>
<path d="M626.3206206350362,1082.1873232924936 L785.3847037139144,1059.5964892404245" fill="none" stroke="#90cdf4" stroke-width="1"/>
<text dominant-baseline="middle" fill="#000000" font-family="&apos;JetBrains Mono&apos;, ui-monospace, SFMono-Regular, Menlo, Monaco, Consolas, &apos;Liberation Mono&apos;, &apos;Courier New&apos;, system-ui, -apple-system, BlinkMacSystemFont, &apos;Segoe UI&apos;, Roboto, Inter, &apos;Helvetica Neue&apos;, Arial, sans-serif" font-size="14" text-anchor="middle" transform="rotate(-8.083286643430052 707.8073027464915 1084.6547053565637)" x="707.8073027464915" y="1084.6547053565637">
10G
</text>
<path d="M830.7319374351829,923.5791229807191 L998.8592924747422,932.4374130066033" fill="none" stroke="#90cdf4" stroke-width="1"/>
<text dominant-baseline="middle" fill="#000000" font-family="&apos;JetBrains Mono&apos;, ui-monospace, SFMono-Regular, Menlo, Monaco, Consolas, &apos;Liberation Mono&apos;, &apos;Courier New&apos;, system-ui, -apple-system, BlinkMacSystemFont, &apos;Segoe UI&apos;, Roboto, Inter, &apos;Helvetica Neue&apos;, Arial, sans-serif" font-size="14" text-anchor="middle" transform="rotate(3.0160098741879287 914.0642187033518 941.8899220047467)" x="914.0642187033518" y="941.8899220047467">
10G
</text>
<g>
<path d="M860.5707033750787,654.13705905189 C860.5707033750787,648.6094319945585 865.0517304749098,644.1284048947274 870.5793575322414,644.1284048947274 L917.2864102656672,644.1284048947274 C922.8140373229987,644.1284048947274 927.2950644228299,648.6094319945585 927.2950644228299,654.13705905189 L927.2950644228299,700.8441117853158 C927.2950644228299,706.3717388426473 922.8140373229987,710.8527659424785 917.2864102656672,710.8527659424785 L870.5793575322414,710.8527659424785 C865.0517304749098,710.8527659424785 860.5707033750787,706.3717388426473 860.5707033750787,700.8441117853158 Z" fill="#2a4a7a" stroke="#90cdf4" stroke-width="1"/>
<text dominant-baseline="middle" fill="#000000" font-family="&apos;JetBrains Mono&apos;, ui-monospace, SFMono-Regular, Menlo, Monaco, Consolas, &apos;Liberation Mono&apos;, &apos;Courier New&apos;, system-ui, -apple-system, BlinkMacSystemFont, &apos;Segoe UI&apos;, Roboto, Inter, &apos;Helvetica Neue&apos;, Arial, sans-serif" font-size="22" text-anchor="middle" x="893.9328838989543" y="764.9600630058338">
RING1-A
</text>
</g>
<g>
<path d="M794.68429356555,398.77317836807026 C794.68429356555,393.2455513107388 799.1653206653812,388.76452421090767 804.6929477227127,388.76452421090767 L851.4000004561385,388.76452421090767 C856.92762751347,388.76452421090767 861.4086546133012,393.2455513107388 861.4086546133012,398.77317836807026 L861.4086546133012,445.4802311014961 C861.4086546133012,451.0078581588276 856.92762751347,455.4888852586588 851.4000004561385,455.4888852586588 L804.6929477227127,455.4888852586588 C799.1653206653812,455.4888852586588 794.68429356555,451.0078581588276 794.68429356555,445.4802311014961 Z" fill="#2a4a7a" stroke="#90cdf4" stroke-width="1"/>
<text dominant-baseline="middle" fill="#000000" font-family="&apos;JetBrains Mono&apos;, ui-monospace, SFMono-Regular, Menlo, Monaco, Consolas, &apos;Liberation Mono&apos;, &apos;Courier New&apos;, system-ui, -apple-system, BlinkMacSystemFont, &apos;Segoe UI&apos;, Roboto, Inter, &apos;Helvetica Neue&apos;, Arial, sans-serif" font-size="22" text-anchor="middle" x="828.0464740894256" y="509.5961823220141">
RING1-B
</text>
</g>
<g>
<path d="M626.6304547873274,192.63423548980137 C626.6304547873274,187.1066084324699 631.1114818871584,182.62558133263872 636.63910894449,182.62558133263872 L683.3461616779158,182.62558133263872 C688.8737887352473,182.62558133263872 693.3548158350784,187.1066084324699 693.3548158350785,192.63423548980137 L693.3548158350785,239.34128822322725 C693.3548158350785,244.86891528055872 688.8737887352473,249.3499423803899 683.3461616779158,249.3499423803899 L636.63910894449,249.3499423803899 C631.1114818871584,249.3499423803899 626.6304547873274,244.86891528055872 626.6304547873274,239.34128822322725 Z" fill="#2a4a7a" stroke="#90cdf4" stroke-width="1"/>
<text dominant-baseline="middle" fill="#000000" font-family="&apos;JetBrains Mono&apos;, ui-monospace, SFMono-Regular, Menlo, Monaco, Consolas, &apos;Liberation Mono&apos;, &apos;Courier New&apos;, system-ui, -apple-system, BlinkMacSystemFont, &apos;Segoe UI&apos;, Roboto, Inter, &apos;Helvetica Neue&apos;, Arial, sans-serif" font-size="22" text-anchor="middle" x="659.9926353112029" y="303.4572394437452">
RING1-C
</text>
</g>
<g>
<path d="M377.1271165995018,94.45915034079349 C377.1271165995018,88.93152328346201 381.60814369933297,84.45049618363089 387.13577075666444,84.45049618363089 L433.84282349009027,84.45049618363089 C439.3704505474218,84.45049618363089 443.8514776472529,88.93152328346201 443.8514776472529,94.45915034079349 L443.8514776472529,141.16620307421937 C443.8514776472529,146.69383013155084 439.3704505474218,151.17485723138202 433.84282349009027,151.17485723138202 L387.13577075666444,151.17485723138202 C381.60814369933297,151.17485723138202 377.1271165995018,146.69383013155084 377.1271165995018,141.16620307421937 Z" fill="#2a4a7a" stroke="#90cdf4" stroke-width="1"/>
<text dominant-baseline="middle" fill="#000000" font-family="&apos;JetBrains Mono&apos;, ui-monospace, SFMono-Regular, Menlo, Monaco, Consolas, &apos;Liberation Mono&apos;, &apos;Courier New&apos;, system-ui, -apple-system, BlinkMacSystemFont, &apos;Segoe UI&apos;, Roboto, Inter, &apos;Helvetica Neue&apos;, Arial, sans-serif" font-size="22" text-anchor="middle" x="410.48929712337736" y="30.34319912027547">
RING1-D
</text>
</g>
<g>
<path d="M160.0670970609914,238.60080625614398 C160.0670970609914,233.0731791988125 164.54812416082257,228.59215209898133 170.07575121815398,228.59215209898133 L216.78280395157987,228.59215209898133 C222.3104310089114,228.59215209898133 226.79145810874252,233.0731791988125 226.79145810874252,238.60080625614398 L226.79145810874252,285.30785898956987 C226.79145810874252,290.83548604690134 222.3104310089114,295.3165131467325 216.78280395157987,295.3165131467325 L170.07575121815398,295.3165131467325 C164.54812416082257,295.3165131467325 160.0670970609914,290.83548604690134 160.0670970609914,285.30785898956987 Z" fill="#2a4a7a" stroke="#90cdf4" stroke-width="1"/>
<text dominant-baseline="middle" fill="#000000" font-family="&apos;JetBrains Mono&apos;, ui-monospace, SFMono-Regular, Menlo, Monaco, Consolas, &apos;Liberation Mono&apos;, &apos;Courier New&apos;, system-ui, -apple-system, BlinkMacSystemFont, &apos;Segoe UI&apos;, Roboto, Inter, &apos;Helvetica Neue&apos;, Arial, sans-serif" font-size="22" text-anchor="middle" x="193.42927758486695" y="349.4238102100878">
RING1-E
</text>
</g>
<g>
<path d="M93.32627899473493,501.25996851601906 C93.32627899473493,495.73234145868753 97.807306094566,491.2513143588564 103.33493315189753,491.2513143588564 L150.04198588532347,491.2513143588564 C155.56961294265489,491.2513143588564 160.05064004248607,495.73234145868753 160.05064004248607,501.25996851601906 L160.05064004248607,547.9670212494449 C160.05064004248607,553.4946483067764 155.56961294265489,557.9756754066075 150.04198588532347,557.9756754066075 L103.33493315189753,557.9756754066075 C97.807306094566,557.9756754066075 93.32627899473493,553.4946483067764 93.32627899473493,547.9670212494449 Z" fill="#2a4a7a" stroke="#90cdf4" stroke-width="1"/>
<text dominant-baseline="middle" fill="#000000" font-family="&apos;JetBrains Mono&apos;, ui-monospace, SFMono-Regular, Menlo, Monaco, Consolas, &apos;Liberation Mono&apos;, &apos;Courier New&apos;, system-ui, -apple-system, BlinkMacSystemFont, &apos;Segoe UI&apos;, Roboto, Inter, &apos;Helvetica Neue&apos;, Arial, sans-serif" font-size="22" text-anchor="middle" x="126.68845951861056" y="612.0829724699629">
RING1-F
</text>
</g>
<g>
<path d="M167.88481262893515,773.3398187945238 C167.88481262893515,767.8121917371923 172.36583972876633,763.3311646373611 177.89346678609786,763.3311646373611 L224.6005195195237,763.3311646373611 C230.12814657685516,763.3311646373611 234.60917367668634,767.8121917371923 234.60917367668634,773.3398187945238 L234.60917367668634,820.0468715279495 C234.60917367668634,825.574498585281 230.12814657685516,830.0555256851122 224.6005195195237,830.0555256851122 L177.89346678609786,830.0555256851122 C172.36583972876633,830.0555256851122 167.88481262893515,825.574498585281 167.88481262893515,820.0468715279495 Z" fill="#2a4a7a" stroke="#90cdf4" stroke-width="1"/>
<text dominant-baseline="middle" fill="#000000" font-family="&apos;JetBrains Mono&apos;, ui-monospace, SFMono-Regular, Menlo, Monaco, Consolas, &apos;Liberation Mono&apos;, &apos;Courier New&apos;, system-ui, -apple-system, BlinkMacSystemFont, &apos;Segoe UI&apos;, Roboto, Inter, &apos;Helvetica Neue&apos;, Arial, sans-serif" font-size="22" text-anchor="middle" x="201.24699315281077" y="884.1628227484675">
RING1-G
</text>
</g>
<g>
<path d="M345.17258168707247,985.9758036088053 C345.17258168707247,980.4481765514739 349.65360878690365,975.9671494516427 355.1812358442351,975.9671494516427 L401.888288577661,975.9671494516427 C407.41591563499253,975.9671494516427 411.89694273482365,980.4481765514739 411.89694273482365,985.9758036088053 L411.89694273482365,1032.6828563422312 C411.89694273482365,1038.2104833995627 407.41591563499253,1042.6915104993939 401.888288577661,1042.6915104993939 L355.1812358442351,1042.6915104993939 C349.65360878690365,1042.6915104993939 345.17258168707247,1038.2104833995627 345.17258168707247,1032.6828563422312 Z" fill="#2a4a7a" stroke="#90cdf4" stroke-width="1"/>
<text dominant-baseline="middle" fill="#000000" font-family="&apos;JetBrains Mono&apos;, ui-monospace, SFMono-Regular, Menlo, Monaco, Consolas, &apos;Liberation Mono&apos;, &apos;Courier New&apos;, system-ui, -apple-system, BlinkMacSystemFont, &apos;Segoe UI&apos;, Roboto, Inter, &apos;Helvetica Neue&apos;, Arial, sans-serif" font-size="22" text-anchor="middle" x="378.5347622109481" y="1096.7988075627493">
RING1-H
</text>
</g>
<g>
<path d="M592.9584401111606,1058.8337969257807 C592.9584401111606,1053.3061698684492 597.4394672109918,1048.825142768618 602.9670942683233,1048.825142768618 L649.674147001749,1048.825142768618 C655.2017740590805,1048.825142768618 659.6828011589117,1053.3061698684492 659.6828011589117,1058.8337969257807 L659.6828011589117,1105.5408496592065 C659.6828011589117,1111.068476716538 655.2017740590805,1115.549503816369 649.674147001749,1115.549503816369 L602.9670942683233,1115.549503816369 C597.4394672109918,1115.549503816369 592.9584401111606,1111.068476716538 592.9584401111606,1105.5408496592065 Z" fill="#2a4a7a" stroke="#90cdf4" stroke-width="1"/>
<text dominant-baseline="middle" fill="#000000" font-family="&apos;JetBrains Mono&apos;, ui-monospace, SFMono-Regular, Menlo, Monaco, Consolas, &apos;Liberation Mono&apos;, &apos;Courier New&apos;, system-ui, -apple-system, BlinkMacSystemFont, &apos;Segoe UI&apos;, Roboto, Inter, &apos;Helvetica Neue&apos;, Arial, sans-serif" font-size="22" text-anchor="middle" x="809.5673581428932" y="1169.6568008797244">
RING1-I
</text>
</g>
<g>
<path d="M797.3697569113074,900.2255966140061 C797.3697569113074,894.6979695566746 801.8507840111386,890.2169424568435 807.37841106847,890.2169424568435 L854.0854638018959,890.2169424568435 C859.6130908592273,890.2169424568435 864.0941179590585,894.6979695566746 864.0941179590585,900.2255966140061 L864.0941179590585,946.9326493474321 C864.0941179590585,952.4602764047635 859.6130908592273,956.9413035045947 854.0854638018959,956.9413035045947 L807.37841106847,956.9413035045947 C801.8507840111386,956.9413035045947 797.3697569113074,952.4602764047635 797.3697569113074,946.9326493474321 Z" fill="#2a4a7a" stroke="#90cdf4" stroke-width="1"/>
<text dominant-baseline="middle" fill="#000000" font-family="&apos;JetBrains Mono&apos;, ui-monospace, SFMono-Regular, Menlo, Monaco, Consolas, &apos;Liberation Mono&apos;, &apos;Courier New&apos;, system-ui, -apple-system, BlinkMacSystemFont, &apos;Segoe UI&apos;, Roboto, Inter, &apos;Helvetica Neue&apos;, Arial, sans-serif" font-size="22" text-anchor="middle" x="1013.97867494304" y="1011.04860056795">
RING1-J
</text>
</g>
<g>
<path d="M1027.2717313584412,661.5765086581052 L1102.0030157319225,661.5765086581052 C1106.673721005265,661.5765086581052 1106.673721005265,661.5765086581052 1106.673721005265,664.9127267104927 L1106.673721005265,691.6024711295933 C1106.673721005265,694.9386891819807 1106.673721005265,694.9386891819807 1102.0030157319225,694.9386891819807 L1027.2717313584412,694.9386891819807 C1022.6010260850985,694.9386891819807 1022.6010260850985,694.9386891819807 1022.6010260850985,691.6024711295933 L1022.6010260850985,664.9127267104927 C1022.6010260850985,661.5765086581052 1022.6010260850985,661.5765086581052 1027.2717313584412,661.5765086581052 Z M1031.9424366317837,670.2506755943128 L1097.3323104585797,670.2506755943128 M1031.9424366317837,675.5886244781329 L1097.3323104585797,675.5886244781329 M1031.9424366317837,680.926573361953 L1097.3323104585797,680.926573361953 M1031.9424366317837,686.2645222457732 L1097.3323104585797,686.2645222457732" fill="#2a4a7a" stroke="#90cdf4" stroke-width="2"/>
<text dominant-baseline="middle" fill="#000000" font-family="&apos;JetBrains Mono&apos;, ui-monospace, SFMono-Regular, Menlo, Monaco, Consolas, &apos;Liberation Mono&apos;, &apos;Courier New&apos;, system-ui, -apple-system, BlinkMacSystemFont, &apos;Segoe UI&apos;, Roboto, Inter, &apos;Helvetica Neue&apos;, Arial, sans-serif" font-size="22" text-anchor="middle" x="1256.5582779892466" y="678.2575989200429">
RING2-A
</text>
</g>
<g>
<path d="M960.7692612857882,390.5903222432871 L1035.5005456592694,390.5903222432871 C1040.171250932612,390.5903222432871 1040.171250932612,390.5903222432871 1040.171250932612,393.9265402956747 L1040.171250932612,420.61628471477513 C1040.171250932612,423.9525027671627 1040.171250932612,423.9525027671627 1035.5005456592694,423.9525027671627 L960.7692612857882,423.9525027671627 C956.0985560124456,423.9525027671627 956.0985560124456,423.9525027671627 956.0985560124456,420.61628471477513 L956.0985560124456,393.9265402956747 C956.0985560124456,390.5903222432871 956.0985560124456,390.5903222432871 960.7692612857882,390.5903222432871 Z M965.4399665591308,399.2644891794948 L1030.829840385927,399.2644891794948 M965.4399665591308,404.6024380633149 L1030.829840385927,404.6024380633149 M965.4399665591308,409.9403869471349 L1030.829840385927,409.9403869471349 M965.4399665591308,415.27833583095503 L1030.829840385927,415.27833583095503" fill="#2a4a7a" stroke="#90cdf4" stroke-width="2"/>
<text dominant-baseline="middle" fill="#000000" font-family="&apos;JetBrains Mono&apos;, ui-monospace, SFMono-Regular, Menlo, Monaco, Consolas, &apos;Liberation Mono&apos;, &apos;Courier New&apos;, system-ui, -apple-system, BlinkMacSystemFont, &apos;Segoe UI&apos;, Roboto, Inter, &apos;Helvetica Neue&apos;, Arial, sans-serif" font-size="22" text-anchor="middle" x="1190.0558079165935" y="407.27141250522493">
RING2-B
</text>
</g>
<g>
<path d="M787.0929786563488,174.0275625358302 L861.8242630298301,174.0275625358302 C866.4949683031728,174.0275625358302 866.4949683031728,174.0275625358302 866.4949683031728,177.36378058821776 L866.4949683031728,204.05352500731823 C866.4949683031728,207.38974305970578 866.4949683031728,207.38974305970578 861.8242630298301,207.38974305970578 L787.0929786563488,207.38974305970578 C782.4222733830063,207.38974305970578 782.4222733830063,207.38974305970578 782.4222733830063,204.05352500731823 L782.4222733830063,177.36378058821776 C782.4222733830063,174.0275625358302 782.4222733830063,174.0275625358302 787.0929786563488,174.0275625358302 Z M791.7636839296914,182.70172947203787 L857.1535577564875,182.70172947203787 M791.7636839296914,188.03967835585797 L857.1535577564875,188.03967835585797 M791.7636839296914,193.37762723967802 L857.1535577564875,193.37762723967802 M791.7636839296914,198.71557612349812 L857.1535577564875,198.71557612349812" fill="#2a4a7a" stroke="#90cdf4" stroke-width="2"/>
<text dominant-baseline="middle" fill="#000000" font-family="&apos;JetBrains Mono&apos;, ui-monospace, SFMono-Regular, Menlo, Monaco, Consolas, &apos;Liberation Mono&apos;, &apos;Courier New&apos;, system-ui, -apple-system, BlinkMacSystemFont, &apos;Segoe UI&apos;, Roboto, Inter, &apos;Helvetica Neue&apos;, Arial, sans-serif" font-size="22" text-anchor="middle" x="824.4586208430894" y="119.92026547247485">
RING2-C
</text>
</g>
<g>
<path d="M535.8966360491629,86.99820908417666 L610.6279204226441,86.99820908417666 C615.2986256959866,86.99820908417666 615.2986256959866,86.99820908417666 615.2986256959866,90.33442713656422 L615.2986256959866,117.02417155566468 C615.2986256959866,120.36038960805223 615.2986256959866,120.36038960805223 610.6279204226441,120.36038960805223 L535.8966360491629,120.36038960805223 C531.2259307758203,120.36038960805223 531.2259307758203,120.36038960805223 531.2259307758203,117.02417155566468 L531.2259307758203,90.33442713656422 C531.2259307758203,86.99820908417666 531.2259307758203,86.99820908417666 535.8966360491629,86.99820908417666 Z M540.5673413225054,95.67237602038432 L605.9572151493015,95.67237602038432 M540.5673413225054,101.01032490420437 L605.9572151493015,101.01032490420437 M540.5673413225054,106.34827378802447 L605.9572151493015,106.34827378802447 M540.5673413225054,111.68622267184458 L605.9572151493015,111.68622267184458" fill="#2a4a7a" stroke="#90cdf4" stroke-width="2"/>
<text dominant-baseline="middle" fill="#000000" font-family="&apos;JetBrains Mono&apos;, ui-monospace, SFMono-Regular, Menlo, Monaco, Consolas, &apos;Liberation Mono&apos;, &apos;Courier New&apos;, system-ui, -apple-system, BlinkMacSystemFont, &apos;Segoe UI&apos;, Roboto, Inter, &apos;Helvetica Neue&apos;, Arial, sans-serif" font-size="22" text-anchor="middle" x="573.2622782359035" y="174.4676866714076">
RING2-D
</text>
</g>
<g>
<path d="M321.96991982478386,232.39120896973492 L396.70120419826515,232.39120896973492 C401.37190947160775,232.39120896973492 401.37190947160775,232.39120896973492 401.37190947160775,235.72742702212247 L401.37190947160775,262.41717144122293 C401.37190947160775,265.7533894936105 401.37190947160775,265.7533894936105 396.70120419826515,265.7533894936105 L321.96991982478386,265.7533894936105 C317.29921455144137,265.7533894936105 317.29921455144137,265.7533894936105 317.29921455144137,262.41717144122293 L317.29921455144137,235.72742702212247 C317.29921455144137,232.39120896973492 317.29921455144137,232.39120896973492 321.96991982478386,232.39120896973492 Z M326.64062509812646,241.06537590594252 L392.03049892492254,241.06537590594252 M326.64062509812646,246.40332478976262 L392.03049892492254,246.40332478976262 M326.64062509812646,251.74127367358273 L392.03049892492254,251.74127367358273 M326.64062509812646,257.07922255740283 L392.03049892492254,257.07922255740283" fill="#2a4a7a" stroke="#90cdf4" stroke-width="2"/>
<text dominant-baseline="middle" fill="#000000" font-family="&apos;JetBrains Mono&apos;, ui-monospace, SFMono-Regular, Menlo, Monaco, Consolas, &apos;Liberation Mono&apos;, &apos;Courier New&apos;, system-ui, -apple-system, BlinkMacSystemFont, &apos;Segoe UI&apos;, Roboto, Inter, &apos;Helvetica Neue&apos;, Arial, sans-serif" font-size="22" text-anchor="middle" x="359.33556201152453" y="319.86068655696585">
RING2-E
</text>
</g>
<g>
<path d="M256.2911171130667,477.7124403245092 L331.022401486548,477.7124403245092 C335.69310675989055,477.7124403245092 335.69310675989055,477.7124403245092 335.69310675989055,481.04865837689675 L335.69310675989055,507.7384027959972 C335.69310675989055,511.07462084838477 335.69310675989055,511.07462084838477 331.022401486548,511.07462084838477 L256.2911171130667,511.07462084838477 C251.62041183972406,511.07462084838477 251.62041183972406,511.07462084838477 251.62041183972406,507.7384027959972 L251.62041183972406,481.04865837689675 C251.62041183972406,477.7124403245092 251.62041183972406,477.7124403245092 256.2911171130667,477.7124403245092 Z M260.96182238640927,486.3866072607168 L326.35169621320534,486.3866072607168 M260.96182238640927,491.7245561445369 L326.35169621320534,491.7245561445369 M260.96182238640927,497.062505028357 L326.35169621320534,497.062505028357 M260.96182238640927,502.4004539121771 L326.35169621320534,502.4004539121771" fill="#2a4a7a" stroke="#90cdf4" stroke-width="2"/>
<text dominant-baseline="middle" fill="#000000" font-family="&apos;JetBrains Mono&apos;, ui-monospace, SFMono-Regular, Menlo, Monaco, Consolas, &apos;Liberation Mono&apos;, &apos;Courier New&apos;, system-ui, -apple-system, BlinkMacSystemFont, &apos;Segoe UI&apos;, Roboto, Inter, &apos;Helvetica Neue&apos;, Arial, sans-serif" font-size="22" text-anchor="middle" x="485.577663743872" y="494.39353058644696">
RING2-F
</text>
</g>
<g>
<path d="M328.3252162270988,730.8171118681871 L403.0565006005801,730.8171118681871 C407.7272058739227,730.8171118681871 407.7272058739227,730.8171118681871 407.7272058739227,734.1533299205747 L407.7272058739227,760.8430743396751 C407.7272058739227,764.1792923920627 407.7272058739227,764.1792923920627 403.0565006005801,764.1792923920627 L328.3252162270988,764.1792923920627 C323.6545109537563,764.1792923920627 323.6545109537563,764.1792923920627 323.6545109537563,760.8430743396751 L323.6545109537563,734.1533299205747 C323.6545109537563,730.8171118681871 323.6545109537563,730.8171118681871 328.3252162270988,730.8171118681871 Z M332.9959215004414,739.4912788043948 L398.3857953272375,739.4912788043948 M332.9959215004414,744.8292276882148 L398.3857953272375,744.8292276882148 M332.9959215004414,750.1671765720349 L398.3857953272375,750.1671765720349 M332.9959215004414,755.505125455855 L398.3857953272375,755.505125455855" fill="#2a4a7a" stroke="#90cdf4" stroke-width="2"/>
<text dominant-baseline="middle" fill="#000000" font-family="&apos;JetBrains Mono&apos;, ui-monospace, SFMono-Regular, Menlo, Monaco, Consolas, &apos;Liberation Mono&apos;, &apos;Courier New&apos;, system-ui, -apple-system, BlinkMacSystemFont, &apos;Segoe UI&apos;, Roboto, Inter, &apos;Helvetica Neue&apos;, Arial, sans-serif" font-size="22" text-anchor="middle" x="557.6117628579042" y="747.4982021301249">
RING2-G
</text>
</g>
<g>
<path d="M500.98767693065884,936.807418622718 L575.7189613041401,936.807418622718 C580.3896665774827,936.807418622718 580.3896665774827,936.807418622718 580.3896665774827,940.1436366751057 L580.3896665774827,966.8333810942061 C580.3896665774827,970.1695991465936 580.3896665774827,970.1695991465936 575.7189613041401,970.1695991465936 L500.98767693065884,970.1695991465936 C496.31697165731623,970.1695991465936 496.31697165731623,970.1695991465936 496.31697165731623,966.8333810942061 L496.31697165731623,940.1436366751057 C496.31697165731623,936.807418622718 496.31697165731623,936.807418622718 500.98767693065884,936.807418622718 Z M505.65838220400144,945.4815855589256 L571.0482560307976,945.4815855589256 M505.65838220400144,950.8195344427457 L571.0482560307976,950.8195344427457 M505.65838220400144,956.1574833265659 L571.0482560307976,956.1574833265659 M505.65838220400144,961.495432210386 L571.0482560307976,961.495432210386" fill="#2a4a7a" stroke="#90cdf4" stroke-width="2"/>
<text dominant-baseline="middle" fill="#000000" font-family="&apos;JetBrains Mono&apos;, ui-monospace, SFMono-Regular, Menlo, Monaco, Consolas, &apos;Liberation Mono&apos;, &apos;Courier New&apos;, system-ui, -apple-system, BlinkMacSystemFont, &apos;Segoe UI&apos;, Roboto, Inter, &apos;Helvetica Neue&apos;, Arial, sans-serif" font-size="22" text-anchor="middle" x="538.3533191173995" y="882.7001215593627">
RING2-H
</text>
</g>
<g>
<path d="M748.0190615271738,1042.9153989784866 L822.750345900655,1042.9153989784866 C827.4210511739976,1042.9153989784866 827.4210511739976,1042.9153989784866 827.4210511739976,1046.251617030874 L827.4210511739976,1072.9413614499745 C827.4210511739976,1076.2775795023622 827.4210511739976,1076.2775795023622 822.750345900655,1076.2775795023622 L748.0190615271738,1076.2775795023622 C743.3483562538312,1076.2775795023622 743.3483562538312,1076.2775795023622 743.3483562538312,1072.9413614499745 L743.3483562538312,1046.251617030874 C743.3483562538312,1042.9153989784866 743.3483562538312,1042.9153989784866 748.0190615271738,1042.9153989784866 Z M752.6897668005164,1051.5895659146943 L818.0796406273125,1051.5895659146943 M752.6897668005164,1056.9275147985143 L818.0796406273125,1056.9275147985143 M752.6897668005164,1062.2654636823345 L818.0796406273125,1062.2654636823345 M752.6897668005164,1067.6034125661545 L818.0796406273125,1067.6034125661545" fill="#2a4a7a" stroke="#90cdf4" stroke-width="2"/>
<text dominant-baseline="middle" fill="#000000" font-family="&apos;JetBrains Mono&apos;, ui-monospace, SFMono-Regular, Menlo, Monaco, Consolas, &apos;Liberation Mono&apos;, &apos;Courier New&apos;, system-ui, -apple-system, BlinkMacSystemFont, &apos;Segoe UI&apos;, Roboto, Inter, &apos;Helvetica Neue&apos;, Arial, sans-serif" font-size="22" text-anchor="middle" x="785.3847037139144" y="1130.3848765657176">
RING2-I
</text>
</g>
<g>
<path d="M961.4936502880016,915.7563227446656 L1036.2249346614828,915.7563227446656 C1040.8956399348256,915.7563227446656 1040.8956399348256,915.7563227446656 1040.8956399348256,919.0925407970531 L1040.8956399348256,945.7822852161535 C1040.8956399348256,949.1185032685411 1040.8956399348256,949.1185032685411 1036.2249346614828,949.1185032685411 L961.4936502880016,949.1185032685411 C956.822945014659,949.1185032685411 956.822945014659,949.1185032685411 956.822945014659,945.7822852161535 L956.822945014659,919.0925407970531 C956.822945014659,915.7563227446656 956.822945014659,915.7563227446656 961.4936502880016,915.7563227446656 Z M966.1643555613442,924.4304896808732 L1031.5542293881404,924.4304896808732 M966.1643555613442,929.7684385646933 L1031.5542293881404,929.7684385646933 M966.1643555613442,935.1063874485134 L1031.5542293881404,935.1063874485134 M966.1643555613442,940.4443363323335 L1031.5542293881404,940.4443363323335" fill="#2a4a7a" stroke="#90cdf4" stroke-width="2"/>
<text dominant-baseline="middle" fill="#000000" font-family="&apos;JetBrains Mono&apos;, ui-monospace, SFMono-Regular, Menlo, Monaco, Consolas, &apos;Liberation Mono&apos;, &apos;Courier New&apos;, system-ui, -apple-system, BlinkMacSystemFont, &apos;Segoe UI&apos;, Roboto, Inter, &apos;Helvetica Neue&apos;, Arial, sans-serif" font-size="22" text-anchor="middle" x="1190.780196918807" y="861.6490256813101">
RING2-J
</text>
</g>
</svg>