<svg height="1000" preserveAspectRatio="none" viewBox="0 0 1600 1000" width="1600" xmlns="http://www.w3.org/2000/svg">
<path d="M1774.8431920649234,1774.6042380522995 L1774.9595130748423,1774.7521190261498" fill="none" stroke="#000000" stroke-width="1"/>
<path d="M1774.8431920649234,1774.6042380522995 L1774.8431920649234,1774.7521190261498" fill="none" stroke="#000000" stroke-width="1"/>
<path d="M1774.9595130748423,1774.6042380522995 L1774.9595130748423,1774.7521190261498" fill="none" stroke="#000000" stroke-width="1"/>
<path d="M1774.9595130748423,1774.6042380522995 L1774.8431920649234,1774.7521190261498" fill="none" stroke="#000000" stroke-width="1"/>
<path d="M1774.9595130748423,1774.7521190261498 L1775.2354373309288,1774.9" fill="none" stroke="#000000" stroke-width="1"/>
<path d="M1774.9595130748423,1774.7521190261498 L1774.68088367899,1774.9" fill="none" stroke="#000000" stroke-width="1"/>
<path d="M1774.8431920649234,1774.7521190261498 L1775.2354373309288,1774.9" fill="none" stroke="#000000" stroke-width="1"/>
<path d="M1774.8431920649234,1774.7521190261498 L1774.68088367899,1774.9" fill="none" stroke="#000000" stroke-width="1"/>
<path d="M1774.9595130748423,1774.7521190261498 L1775.343642921551,1775.0478809738504" fill="none" stroke="#000000" stroke-width="1"/>
<path d="M1774.9595130748423,1774.7521190261498 L1775.0663660955818,1775.0478809738504" fill="none" stroke="#000000" stroke-width="1"/>
<path d="M1774.9595130748423,1774.7521190261498 L1774.7890892696123,1775.0478809738504" fill="none" stroke="#000000" stroke-width="1"/>
<path d="M1774.9595130748423,1774.7521190261498 L1774.511812443643,1775.0478809738504" fill="none" stroke="#000000" stroke-width="1"/>
<path d="M1774.8431920649234,1774.7521190261498 L1775.343642921551,1775.0478809738504" fill="none" stroke="#000000" stroke-width="1"/>
<path d="M1774.8431920649234,1774.7521190261498 L1775.0663660955818,1775.0478809738504" fill="none" stroke="#000000" stroke-width="1"/>
<path d="M1774.8431920649234,1774.7521190261498 L1774.7890892696123,1775.0478809738504" fill="none" stroke="#000000" stroke-width="1"/>
<path d="M1774.8431920649234,1774.7521190261498 L1774.511812443643,1775.0478809738504" fill="none" stroke="#000000" stroke-width="1"/>
<path d="M1775.2354373309288,1774.9 L1775.343642921551,1775.0478809738504" fill="none" stroke="#000000" stroke-width="1"/>
<path d="M1775.2354373309288,1774.9 L1775.0663660955818,1775.0478809738504" fill="none" stroke="#000000" stroke-width="1"/>
<path d="M1774.68088367899,1774.9 L1774.7890892696123,1775.0478809738504" fill="none" stroke="#000000" stroke-width="1"/>
<path d="M1774.68088367899,1774.9 L1774.511812443643,1775.0478809738504" fill="none" stroke="#000000" stroke-width="1"/>
<path d="M1775.343642921551,1775.0478809738504 L1775.399098286745,1775.1957619477007" fill="none" stroke="#000000" stroke-width="1"/>
<path d="M1775.343642921551,1775.0478809738504 L1775.2881875563571,1775.1957619477007" fill="none" stroke="#000000" stroke-width="1"/>
<path d="M1775.0663660955818,1775.0478809738504 L1775.1772768259693,1775.1957619477007" fill="none" stroke="#000000" stroke-width="1"/>
<path d="M1775.0663660955818,1775.0478809738504 L1775.0663660955818,1775.1957619477007" fill="none" stroke="#000000" stroke-width="1"/>
<path d="M1775.0663660955818,1775.0478809738504 L1774.955455365194,1775.1957619477007" fill="none" stroke="#000000" stroke-width="1"/>
<path d="M1774.7890892696123,1775.0478809738504 L1774.8445446348062,1775.1957619477007" fill="none" stroke="#000000" stroke-width="1"/>
<path d="M1774.7890892696123,1775.0478809738504 L1774.7336339044184,1775.1957619477007" fill="none" stroke="#000000" stroke-width="1"/>
<path d="M1774.511812443643,1775.0478809738504 L1774.6227231740309,1775.1957619477007" fill="none" stroke="#000000" stroke-width="1"/>
<path d="M1774.511812443643,1775.0478809738504 L1774.511812443643,1775.1957619477007" fill="none" stroke="#000000" stroke-width="1"/>
<path d="M1774.511812443643,1775.0478809738504 L1774.4009017132553,1775.1957619477007" fill="none" stroke="#000000" stroke-width="1"/>
<path d="M1774.9595130748423,1774.7521190261498 L1774.5699729486025,1774.9" fill="none" stroke="#000000" stroke-width="1"/>
<path d="M1774.8431920649234,1774.7521190261498 L1774.5699729486025,1774.9" fill="none" stroke="#000000" stroke-width="1"/>
<g>
<circle cx="1775.2354373309288" cy="1774.9" fill="none" r="0.0009017132551848512"/>
</g>
<g>
<circle cx="1775.0663660955818" cy="1775.0478809738504" fill="none" r="0.0009017132551848512"/>
</g>
<g>
<circle cx="1774.7890892696123" cy="1775.0478809738504" fill="none" r="0.0009017132551848512"/>
</g>
<g>
<circle cx="1774.68088367899" cy="1774.9" fill="none" r="0.0009017132551848512"/>
</g>
<g>
<circle cx="1775.2881875563571" cy="1775.1957619477007" fill="none" r="0.0009017132551848512"/>
</g>
<g>
<circle cx="1774.511812443643" cy="1775.1957619477007" fill="none" r="0.0009017132551848512"/>
</g>
<g>
<circle cx="1775.1772768259693" cy="1775.1957619477007" fill="none" r="0.0009017132551848512"/>
</g>
<g>
<circle cx="1774.9595130748423" cy="1774.6042380522995" fill="none" r="0.0009017132551848512"/>
</g>
<g>
<circle cx="1775.343642921551" cy="1775.0478809738504" fill="none" r="0.0009017132551848512"/>
</g>
<g>
<circle cx="1775.399098286745" cy="1775.1957619477007" fill="none" r="0.0009017132551848512"/>
</g>
<g>
<circle cx="1775.0663660955818" cy="1775.1957619477007" fill="none" r="0.0009017132551848512"/>
</g>
<g>
<circle cx="1774.8431920649234" cy="1774.7521190261498" fill="none" r="0.0009017132551848512"/>
</g>
<g>
<circle cx="1774.8431920649234" cy="1774.6042380522995" fill="none" r="0.0009017132551848512"/>
</g>
<g>
<circle cx="1774.955455365194" cy="1775.1957619477007" fill="none" r="0.0009017132551848512"/>
</g>
<g>
<circle cx="1774.7336339044184" cy="1775.1957619477007" fill="none" r="0.0009017132551848512"/>
</g>
<g>
<circle cx="1774.9595130748423" cy="1774.7521190261498" fill="none" r="0.0009017132551848512"/>
</g>
<g>
<circle cx="1774.6227231740309" cy="1775.1957619477007" fill="none" r="0.0009017132551848512"/>
</g>
<g>
<circle cx="1774.4009017132553" cy="1775.1957619477007" fill="none" r="0.0009017132551848512"/>
</g>
<g>
<circle cx="1774.8445446348062" cy="1775.1957619477007" fill="none" r="0.0009017132551848512"/>
</g>
<g>
<circle cx="1774.5699729486025" cy="1774.9" fill="none" r="0.0009017132551848512"/>
</g>
<g>
<circle cx="1774.511812443643" cy="1775.0478809738504" fill="none" r="0.0009017132551848512"/>
</g>
<metadata id="netvis-render-metadata">{"warnings":[],"stats":{"effects_defined":0,"effects_applied":0,"deduplication_ratio":0.0}}</metadata>
</svg>