<svg height="800" preserveAspectRatio="none" viewBox="0 0 1000 800" width="1000" xmlns="http://www.w3.org/2000/svg">
<path d="M757.5528168652637,413.9419511355886 L423.87714418918574,282.62443206903873" fill="none" filter="url(#glow-status-5672693c91e7e70b)" stroke="#5a6a80" stroke-width="2"/>
<text dominant-baseline="middle" fill="#000000" font-family="&apos;JetBrains Mono&apos;, ui-monospace, SFMono-Regular, Menlo, Monaco, Consolas, &apos;Liberation Mono&apos;, &apos;Courier New&apos;, system-ui, -apple-system, BlinkMacSystemFont, &apos;Segoe UI&apos;, Roboto, Inter, &apos;Helvetica Neue&apos;, Arial, sans-serif" font-size="14" text-anchor="middle" transform="rotate(21.48203777193575 598.6182855711936 328.2010224777654)" x="598.6182855711936" y="328.2010224777654">
100G
</text>
<path d="M757.5528168652637,413.9419511355886 L594.446561164146,376.89256466522454" fill="none" stroke="#5a6a80" stroke-width="2"/>
<text dominant-baseline="middle" fill="#000000" font-family="&apos;JetBrains Mono&apos;, ui-monospace, SFMono-Regular, Menlo, Monaco, Consolas, &apos;Liberation Mono&apos;, &apos;Courier New&apos;, system-ui, -apple-system, BlinkMacSystemFont, &apos;Segoe UI&apos;, Roboto, Inter, &apos;Helvetica Neue&apos;, Arial, sans-serif" font-size="14" text-anchor="middle" transform="rotate(12.797512858581257 680.780096679336 374.3719864617931)" x="680.780096679336" y="374.3719864617931">
100G
</text>
<path d="M757.5528168652637,413.9419511355886 L470.61159261459704,689.1544255200815" fill="none" stroke="#5a6a80" stroke-width="2"/>
<text dominant-baseline="middle" fill="#000000" font-family="&apos;JetBrains Mono&apos;, ui-monospace, SFMono-Regular, Menlo, Monaco, Consolas, &apos;Liberation Mono&apos;, &apos;Courier New&apos;, system-ui, -apple-system, BlinkMacSystemFont, &apos;Segoe UI&apos;, Roboto, Inter, &apos;Helvetica Neue&apos;, Arial, sans-serif" font-size="14" text-anchor="middle" transform="rotate(-43.80475680582535 599.1435101973367 535.9728503627035)" x="599.1435101973367" y="535.9728503627035">
100G
</text>
<path d="M423.87714418918574,282.62443206903873 L594.446561164146,376.89256466522454" fill="none" stroke="#5a6a80" stroke-width="2"/>
<text dominant-baseline="middle" fill="#000000" font-family="&apos;JetBrains Mono&apos;, ui-monospace, SFMono-Regular, Menlo, Monaco, Consolas, &apos;Liberation Mono&apos;, &apos;Courier New&apos;, system-ui, -apple-system, BlinkMacSystemFont, &apos;Segoe UI&apos;, Roboto, Inter, &apos;Helvetica Neue&apos;, Arial, sans-serif" font-size="14" text-anchor="middle" transform="rotate(28.92799197071375 498.7227250027875 348.64712883028193)" x="498.7227250027875" y="348.64712883028193">
100G
</text>
<path d="M423.87714418918574,282.62443206903873 L470.61159261459704,689.1544255200815" fill="none" filter="url(#glow-status-5672693c91e7e70b)" stroke="#5a6a80" stroke-width="2"/>
<text dominant-baseline="middle" fill="#000000" font-family="&apos;JetBrains Mono&apos;, ui-monospace, SFMono-Regular, Menlo, Monaco, Consolas, &apos;Liberation Mono&apos;, &apos;Courier New&apos;, system-ui, -apple-system, BlinkMacSystemFont, &apos;Segoe UI&apos;, Roboto, Inter, &apos;Helvetica Neue&apos;, Arial, sans-serif" font-size="14" text-anchor="middle" transform="rotate(83.44209885847737 425.80420142635074 488.35417775255127)" x="425.80420142635074" y="488.35417775255127">
100G
</text>
<path d="M594.446561164146,376.89256466522454 L470.61159261459704,689.1544255200815" fill="none" stroke="#5a6a80" stroke-width="2"/>
<text dominant-baseline="middle" fill="#000000" font-family="&apos;JetBrains Mono&apos;, ui-monospace, SFMono-Regular, Menlo, Monaco, Consolas, &apos;Liberation Mono&apos;, &apos;Courier New&apos;, system-ui, -apple-system, BlinkMacSystemFont, &apos;Segoe UI&apos;, Roboto, Inter, &apos;Helvetica Neue&apos;, Arial, sans-serif" font-size="14" text-anchor="middle" transform="rotate(-68.36800500415004 512.4676614261749 525.0676571746208)" x="512.4676614261749" y="525.0676571746208">
100G
</text>
<path d="M577.683828988648,89.08312591208346 L757.5528168652637,413.9419511355886" fill="none" stroke="#5a6a80" stroke-width="1.5"/>
<text dominant-baseline="middle" fill="#000000" font-family="&apos;JetBrains Mono&apos;, ui-monospace, SFMono-Regular, Menlo, Monaco, Consolas, &apos;Liberation Mono&apos;, &apos;Courier New&apos;, system-ui, -apple-system, BlinkMacSystemFont, &apos;Segoe UI&apos;, Roboto, Inter, &apos;Helvetica Neue&apos;, Arial, sans-serif" font-size="14" text-anchor="middle" transform="rotate(61.02742231070417 648.7378215727506 261.9663615555713)" x="648.7378215727506" y="261.9663615555713">
40G
</text>
<path d="M577.683828988648,89.08312591208346 L423.87714418918574,282.62443206903873" fill="none" stroke="#5a6a80" stroke-width="1.5"/>
<text dominant-baseline="middle" fill="#000000" font-family="&apos;JetBrains Mono&apos;, ui-monospace, SFMono-Regular, Menlo, Monaco, Consolas, &apos;Liberation Mono&apos;, &apos;Courier New&apos;, system-ui, -apple-system, BlinkMacSystemFont, &apos;Segoe UI&apos;, Roboto, Inter, &apos;Helvetica Neue&apos;, Arial, sans-serif" font-size="14" text-anchor="middle" transform="rotate(-51.52594151369769 483.88464543109785 172.42670563354346)" x="483.88464543109785" y="172.42670563354346">
40G
</text>
<path d="M730.6093104573325,156.35108311153135 L423.87714418918574,282.62443206903873" fill="none" stroke="#5a6a80" stroke-width="1.5"/>
<text dominant-baseline="middle" fill="#000000" font-family="&apos;JetBrains Mono&apos;, ui-monospace, SFMono-Regular, Menlo, Monaco, Consolas, &apos;Liberation Mono&apos;, &apos;Courier New&apos;, system-ui, -apple-system, BlinkMacSystemFont, &apos;Segoe UI&apos;, Roboto, Inter, &apos;Helvetica Neue&apos;, Arial, sans-serif" font-size="14" text-anchor="middle" transform="rotate(-22.37564193397219 569.027687945815 199.53128846113674)" x="569.027687945815" y="199.53128846113674">
40G
</text>
<path d="M730.6093104573325,156.35108311153135 L594.446561164146,376.89256466522454" fill="none" stroke="#5a6a80" stroke-width="1.5"/>
<text dominant-baseline="middle" fill="#000000" font-family="&apos;JetBrains Mono&apos;, ui-monospace, SFMono-Regular, Menlo, Monaco, Consolas, &apos;Liberation Mono&apos;, &apos;Courier New&apos;, system-ui, -apple-system, BlinkMacSystemFont, &apos;Segoe UI&apos;, Roboto, Inter, &apos;Helvetica Neue&apos;, Arial, sans-serif" font-size="14" text-anchor="middle" transform="rotate(-58.30873547541165 644.164533418817 255.28422273304855)" x="644.164533418817" y="255.28422273304855">
40G
</text>
<path d="M420.821259462835,524.3207097837796 L594.446561164146,376.89256466522454" fill="none" stroke="#5a6a80" stroke-width="1.5"/>
<text dominant-baseline="middle" fill="#000000" font-family="&apos;JetBrains Mono&apos;, ui-monospace, SFMono-Regular, Menlo, Monaco, Consolas, &apos;Liberation Mono&apos;, &apos;Courier New&apos;, system-ui, -apple-system, BlinkMacSystemFont, &apos;Segoe UI&apos;, Roboto, Inter, &apos;Helvetica Neue&apos;, Arial, sans-serif" font-size="14" text-anchor="middle" transform="rotate(-40.335142785656906 521.60261598468 467.05750374382757)" x="521.60261598468" y="467.05750374382757">
40G
</text>
<path d="M420.821259462835,524.3207097837796 L470.61159261459704,689.1544255200815" fill="none" stroke="#5a6a80" stroke-width="1.5"/>
<text dominant-baseline="middle" fill="#000000" font-family="&apos;JetBrains Mono&apos;, ui-monospace, SFMono-Regular, Menlo, Monaco, Consolas, &apos;Liberation Mono&apos;, &apos;Courier New&apos;, system-ui, -apple-system, BlinkMacSystemFont, &apos;Segoe UI&apos;, Roboto, Inter, &apos;Helvetica Neue&apos;, Arial, sans-serif" font-size="14" text-anchor="middle" transform="rotate(73.19232294360708 425.0569909319511 612.9780394637694)" x="425.0569909319511" y="612.9780394637694">
40G
</text>
<path d="M722.6362823745733,690.5655543215364 L470.61159261459704,689.1544255200815" fill="none" stroke="#5a6a80" stroke-width="1.5"/>
<text dominant-baseline="middle" fill="#000000" font-family="&apos;JetBrains Mono&apos;, ui-monospace, SFMono-Regular, Menlo, Monaco, Consolas, &apos;Liberation Mono&apos;, &apos;Courier New&apos;, system-ui, -apple-system, BlinkMacSystemFont, &apos;Segoe UI&apos;, Roboto, Inter, &apos;Helvetica Neue&apos;, Arial, sans-serif" font-size="14" text-anchor="middle" transform="rotate(0.32080539349709625 596.7447733639385 668.2789531973875)" x="596.7447733639385" y="668.2789531973875">
40G
</text>
<path d="M722.6362823745733,690.5655543215364 L757.5528168652637,413.9419511355886" fill="none" stroke="#5a6a80" stroke-width="1.5"/>
<text dominant-baseline="middle" fill="#000000" font-family="&apos;JetBrains Mono&apos;, ui-monospace, SFMono-Regular, Menlo, Monaco, Consolas, &apos;Liberation Mono&apos;, &apos;Courier New&apos;, system-ui, -apple-system, BlinkMacSystemFont, &apos;Segoe UI&apos;, Roboto, Inter, &apos;Helvetica Neue&apos;, Arial, sans-serif" font-size="14" text-anchor="middle" transform="rotate(-82.80594362667813 761.5060295190272 554.9563951198244)" x="761.5060295190272" y="554.9563951198244">
40G
</text>
<path d="M577.3866199708087,606.3248923832258 L757.5528168652637,413.9419511355886" fill="none" stroke="#5a6a80" stroke-width="1.5"/>
<text dominant-baseline="middle" fill="#000000" font-family="&apos;JetBrains Mono&apos;, ui-monospace, SFMono-Regular, Menlo, Monaco, Consolas, &apos;Liberation Mono&apos;, &apos;Courier New&apos;, system-ui, -apple-system, BlinkMacSystemFont, &apos;Segoe UI&apos;, Roboto, Inter, &apos;Helvetica Neue&apos;, Arial, sans-serif" font-size="14" text-anchor="middle" transform="rotate(-46.87818754875139 683.2220094028194 524.8854072561362)" x="683.2220094028194" y="524.8854072561362">
40G
</text>
<path d="M577.3866199708087,606.3248923832258 L594.446561164146,376.89256466522454" fill="none" stroke="#5a6a80" stroke-width="1.5"/>
<text dominant-baseline="middle" fill="#000000" font-family="&apos;JetBrains Mono&apos;, ui-monospace, SFMono-Regular, Menlo, Monaco, Consolas, &apos;Liberation Mono&apos;, &apos;Courier New&apos;, system-ui, -apple-system, BlinkMacSystemFont, &apos;Segoe UI&apos;, Roboto, Inter, &apos;Helvetica Neue&apos;, Arial, sans-serif" font-size="14" text-anchor="middle" transform="rotate(-85.74747320494939 607.4385502376176 493.2090407818302)" x="607.4385502376176" y="493.2090407818302">
40G
</text>
<path d="M262.03338684578785,532.866651032204 L423.87714418918574,282.62443206903873" fill="none" stroke="#5a6a80" stroke-width="1.5"/>
<text dominant-baseline="middle" fill="#000000" font-family="&apos;JetBrains Mono&apos;, ui-monospace, SFMono-Regular, Menlo, Monaco, Consolas, &apos;Liberation Mono&apos;, &apos;Courier New&apos;, system-ui, -apple-system, BlinkMacSystemFont, &apos;Segoe UI&apos;, Roboto, Inter, &apos;Helvetica Neue&apos;, Arial, sans-serif" font-size="14" text-anchor="middle" transform="rotate(-57.10729536112451 361.0769091309364 419.4656857524692)" x="361.0769091309364" y="419.4656857524692">
40G
</text>
<path d="M262.03338684578785,532.866651032204 L470.61159261459704,689.1544255200815" fill="none" stroke="#5a6a80" stroke-width="1.5"/>
<text dominant-baseline="middle" fill="#000000" font-family="&apos;JetBrains Mono&apos;, ui-monospace, SFMono-Regular, Menlo, Monaco, Consolas, &apos;Liberation Mono&apos;, &apos;Courier New&apos;, system-ui, -apple-system, BlinkMacSystemFont, &apos;Segoe UI&apos;, Roboto, Inter, &apos;Helvetica Neue&apos;, Arial, sans-serif" font-size="14" text-anchor="middle" transform="rotate(36.844242484678446 353.3813967640257 628.2814346109024)" x="353.3813967640257" y="628.2814346109024">
40G
</text>
<path d="M577.683828988648,89.08312591208346 L730.6093104573325,156.35108311153135" fill="none" stroke="#5a6a80" stroke-width="1"/>
<text dominant-baseline="middle" fill="#000000" font-family="&apos;JetBrains Mono&apos;, ui-monospace, SFMono-Regular, Menlo, Monaco, Consolas, &apos;Liberation Mono&apos;, &apos;Courier New&apos;, system-ui, -apple-system, BlinkMacSystemFont, &apos;Segoe UI&apos;, Roboto, Inter, &apos;Helvetica Neue&apos;, Arial, sans-serif" font-size="14" text-anchor="middle" transform="rotate(23.74345028101787 645.4570005568947 142.47177826443175)" x="645.4570005568947" y="142.47177826443175">
10G
</text>
<path d="M420.821259462835,524.3207097837796 L722.6362823745733,690.5655543215364" fill="none" stroke="#5a6a80" stroke-width="1"/>
<text dominant-baseline="middle" fill="#000000" font-family="&apos;JetBrains Mono&apos;, ui-monospace, SFMono-Regular, Menlo, Monaco, Consolas, &apos;Liberation Mono&apos;, &apos;Courier New&apos;, system-ui, -apple-system, BlinkMacSystemFont, &apos;Segoe UI&apos;, Roboto, Inter, &apos;Helvetica Neue&apos;, Arial, sans-serif" font-size="14" text-anchor="middle" transform="rotate(28.846720287494236 561.3164464754229 626.3465509776258)" x="561.3164464754229" y="626.3465509776258">
10G
</text>
<path d="M577.3866199708087,606.3248923832258 L262.03338684578785,532.866651032204" fill="none" stroke="#5a6a80" stroke-width="1"/>
<text dominant-baseline="middle" fill="#000000" font-family="&apos;JetBrains Mono&apos;, ui-monospace, SFMono-Regular, Menlo, Monaco, Consolas, &apos;Liberation Mono&apos;, &apos;Courier New&apos;, system-ui, -apple-system, BlinkMacSystemFont, &apos;Segoe UI&apos;, Roboto, Inter, &apos;Helvetica Neue&apos;, Arial, sans-serif" font-size="14" text-anchor="middle" transform="rotate(13.112623472240813 424.60608124556643 548.5771093055449)" x="424.60608124556643" y="548.5771093055449">
10G
</text>
<g>
<path d="M806.5183261428926,413.9419511355886 C806.5183261428926,440.985601909623 784.5964676392981,462.90746041321745 757.5528168652637,462.90746041321745 C730.5091660912293,462.90746041321745 708.5873075876349,440.985601909623 708.5873075876349,413.9419511355886 C708.5873075876349,386.8983003615542 730.5091660912293,364.9764418579598 757.5528168652637,364.9764418579598 C784.5964676392981,364.9764418579598 806.5183261428926,386.8983003615542 806.5183261428926,413.9419511355886 Z M762.9934290072224,413.9419511355886 L790.1964897170162,413.9419511355886 L781.4915102898822,407.4132165652381 M790.1964897170162,413.9419511355886 L781.4915102898822,420.4706857059391 M752.1122047233049,413.9419511355886 L724.9091440135112,413.9419511355886 L733.6141234406451,407.4132165652381 M724.9091440135112,413.9419511355886 L733.6141234406451,420.4706857059391 M757.5528168652637,408.5013389936298 L757.5528168652637,381.29827828383605 L751.0240822949132,390.00325771097005 M757.5528168652637,381.29827828383605 L764.0815514356143,390.00325771097005 M757.5528168652637,419.3825632775474 L757.5528168652637,446.58562398734114 L751.0240822949132,437.88064456020714 M757.5528168652637,446.58562398734114 L764.0815514356143,437.88064456020714" fill="#3d4a5c" filter="url(#stack:drop-shadow-emphasis_glow-emphasis-49588c9b86831e01)" stroke="#4fd1c5" stroke-width="1.8"/>
<text dominant-baseline="middle" fill="#000000" font-family="&apos;JetBrains Mono&apos;, ui-monospace, SFMono-Regular, Menlo, Monaco, Consolas, &apos;Liberation Mono&apos;, &apos;Courier New&apos;, system-ui, -apple-system, BlinkMacSystemFont, &apos;Segoe UI&apos;, Roboto, Inter, &apos;Helvetica Neue&apos;, Arial, sans-serif" font-size="22" text-anchor="middle" x="757.5528168652637" y="544.4261057641763">
Core A
</text>
</g>
<g>
<path d="M472.84265346681457,282.62443206903873 C472.84265346681457,309.66808284307314 450.92079496322015,331.5899413466676 423.87714418918574,331.5899413466676 C396.83349341515134,331.5899413466676 374.9116349115569,309.66808284307314 374.9116349115569,282.62443206903873 C374.9116349115569,255.5807812950043 396.83349341515134,233.65892279140988 423.87714418918574,233.65892279140988 C450.92079496322015,233.65892279140988 472.84265346681457,255.5807812950043 472.84265346681457,282.62443206903873 Z M429.31775633114455,282.62443206903873 L456.5208170409383,282.62443206903873 L447.8158376138043,276.0956974986882 M456.5208170409383,282.62443206903873 L447.8158376138043,289.15316663938927 M418.43653204722705,282.62443206903873 L391.23347133743323,282.62443206903873 L399.9384507645672,276.0956974986882 M391.23347133743323,282.62443206903873 L399.9384507645672,289.15316663938927 M423.87714418918574,277.18381992708 L423.87714418918574,249.98075921728616 L417.34840961883526,258.6857386444202 M423.87714418918574,249.98075921728616 L430.4058787595363,258.6857386444202 M423.87714418918574,288.0650442109975 L423.87714418918574,315.2681049207913 L417.34840961883526,306.56312549365725 M423.87714418918574,315.2681049207913 L430.4058787595363,306.56312549365725" fill="#3d4a5c" filter="url(#drop-shadow-emphasis-9491038c28a08d94)" stroke="#4fd1c5" stroke-width="1.8"/>
<text dominant-baseline="middle" fill="#000000" font-family="&apos;JetBrains Mono&apos;, ui-monospace, SFMono-Regular, Menlo, Monaco, Consolas, &apos;Liberation Mono&apos;, &apos;Courier New&apos;, system-ui, -apple-system, BlinkMacSystemFont, &apos;Segoe UI&apos;, Roboto, Inter, &apos;Helvetica Neue&apos;, Arial, sans-serif" font-size="22" text-anchor="middle" x="423.87714418918574" y="413.1085866976265">
Core B
</text>
</g>
<g>
<path d="M643.4120704417749,376.89256466522454 C643.4120704417749,403.93621543925894 621.4902119381804,425.85807394285337 594.446561164146,425.85807394285337 C567.4029103901116,425.85807394285337 545.4810518865172,403.93621543925894 545.4810518865172,376.89256466522454 C545.4810518865172,349.84891389119014 567.4029103901116,327.9270553875957 594.446561164146,327.9270553875957 C621.4902119381804,327.9270553875957 643.4120704417749,349.84891389119014 643.4120704417749,376.89256466522454 Z M599.8871733061048,376.89256466522454 L627.0902340158987,376.89256466522454 L618.3852545887646,370.363830094874 M627.0902340158987,376.89256466522454 L618.3852545887646,383.421299235575 M589.0059490221873,376.89256466522454 L561.8028883123935,376.89256466522454 L570.5078677395275,370.363830094874 M561.8028883123935,376.89256466522454 L570.5078677395275,383.421299235575 M594.446561164146,371.45195252326573 L594.446561164146,344.24889181347197 L587.9178265937956,352.95387124060596 M594.446561164146,344.24889181347197 L600.9752957344965,352.95387124060596 M594.446561164146,382.3331768071833 L594.446561164146,409.53623751697705 L587.9178265937956,400.83125808984306 M594.446561164146,409.53623751697705 L600.9752957344965,400.83125808984306" fill="#3d4a5c" filter="url(#drop-shadow-emphasis-9491038c28a08d94)" stroke="#4fd1c5" stroke-width="1.8"/>
<text dominant-baseline="middle" fill="#000000" font-family="&apos;JetBrains Mono&apos;, ui-monospace, SFMono-Regular, Menlo, Monaco, Consolas, &apos;Liberation Mono&apos;, &apos;Courier New&apos;, system-ui, -apple-system, BlinkMacSystemFont, &apos;Segoe UI&apos;, Roboto, Inter, &apos;Helvetica Neue&apos;, Arial, sans-serif" font-size="22" text-anchor="middle" x="594.446561164146" y="507.37671929381224">
Core C
</text>
</g>
<g>
<path d="M519.5771018922259,689.1544255200815 C519.5771018922259,716.1980762941159 497.65524338863145,738.1199347977104 470.61159261459704,738.1199347977104 C443.56794184056264,738.1199347977104 421.6460833369682,716.1980762941159 421.6460833369682,689.1544255200815 C421.6460833369682,662.1107747460471 443.56794184056264,640.1889162424527 470.61159261459704,640.1889162424527 C497.65524338863145,640.1889162424527 519.5771018922259,662.1107747460471 519.5771018922259,689.1544255200815 Z M476.0522047565558,689.1544255200815 L503.2552654663496,689.1544255200815 L494.55028603921556,682.625690949731 M503.2552654663496,689.1544255200815 L494.55028603921556,695.683160090432 M465.1709804726383,689.1544255200815 L437.9679197628445,689.1544255200815 L446.6728991899785,682.625690949731 M437.9679197628445,689.1544255200815 L446.6728991899785,695.683160090432 M470.61159261459704,683.7138133781227 L470.61159261459704,656.5107526683289 L464.08285804424656,665.215732095463 M470.61159261459704,656.5107526683289 L477.1403271849476,665.215732095463 M470.61159261459704,694.5950376620403 L470.61159261459704,721.798098371834 L464.08285804424656,713.0931189447 M470.61159261459704,721.798098371834 L477.1403271849476,713.0931189447" fill="#3d4a5c" filter="url(#drop-shadow-emphasis-9491038c28a08d94)" stroke="#4fd1c5" stroke-width="1.8"/>
<text dominant-baseline="middle" fill="#000000" font-family="&apos;JetBrains Mono&apos;, ui-monospace, SFMono-Regular, Menlo, Monaco, Consolas, &apos;Liberation Mono&apos;, &apos;Courier New&apos;, system-ui, -apple-system, BlinkMacSystemFont, &apos;Segoe UI&apos;, Roboto, Inter, &apos;Helvetica Neue&apos;, Arial, sans-serif" font-size="22" text-anchor="middle" x="470.61159261459704" y="819.6385801486692">
Core D
</text>
</g>
<g>
<path d="M516.7489729987099,61.88006520228964 L638.6186849785861,61.88006520228964 C646.2355419773284,61.88006520228964 646.2355419773284,61.88006520228964 646.2355419773284,67.32067734424845 L646.2355419773284,110.84557447991853 C646.2355419773284,116.28618662187728 646.2355419773284,116.28618662187728 638.6186849785861,116.28618662187728 L516.7489729987099,116.28618662187728 C509.1321159999676,116.28618662187728 509.1321159999676,116.28618662187728 509.1321159999676,110.84557447991853 L509.1321159999676,67.32067734424845 C509.1321159999676,61.88006520228964 509.1321159999676,61.88006520228964 516.7489729987099,61.88006520228964 Z M524.3658299974521,76.02565677138244 L631.0018279798438,76.02565677138244 M524.3658299974521,84.73063619851644 L631.0018279798438,84.73063619851644 M524.3658299974521,93.43561562565048 L631.0018279798438,93.43561562565048 M524.3658299974521,102.14059505278448 L631.0018279798438,102.14059505278448" fill="#3d4a5c" filter="url(#drop-shadow-subtle-1f6d4a1634a2f708)" stroke="#68d391" stroke-width="1.8"/>
<text dominant-baseline="middle" fill="#000000" font-family="&apos;JetBrains Mono&apos;, ui-monospace, SFMono-Regular, Menlo, Monaco, Consolas, &apos;Liberation Mono&apos;, &apos;Courier New&apos;, system-ui, -apple-system, BlinkMacSystemFont, &apos;Segoe UI&apos;, Roboto, Inter, &apos;Helvetica Neue&apos;, Arial, sans-serif" font-size="22" text-anchor="middle" x="577.683828988648" y="197.8048319728362">
Edge 1
</text>
</g>
<g>
<path d="M669.6744544673944,129.1480224017376 L791.5441664472705,129.1480224017376 C799.1610234460129,129.1480224017376 799.1610234460129,129.1480224017376 799.1610234460129,134.58863454369634 L799.1610234460129,178.11353167936642 C799.1610234460129,183.55414382132517 799.1610234460129,183.55414382132517 791.5441664472705,183.55414382132517 L669.6744544673944,183.55414382132517 C662.0575974686521,183.55414382132517 662.0575974686521,183.55414382132517 662.0575974686521,178.11353167936642 L662.0575974686521,134.58863454369634 C662.0575974686521,129.1480224017376 662.0575974686521,129.1480224017376 669.6744544673944,129.1480224017376 Z M677.2913114661367,143.2936139708304 L783.9273094485284,143.2936139708304 M677.2913114661367,151.99859339796438 L783.9273094485284,151.99859339796438 M677.2913114661367,160.70357282509843 L783.9273094485284,160.70357282509843 M677.2913114661367,169.40855225223237 L783.9273094485284,169.40855225223237" fill="#3d4a5c" filter="url(#drop-shadow-subtle-1f6d4a1634a2f708)" stroke="#68d391" stroke-width="1.8"/>
<text dominant-baseline="middle" fill="#000000" font-family="&apos;JetBrains Mono&apos;, ui-monospace, SFMono-Regular, Menlo, Monaco, Consolas, &apos;Liberation Mono&apos;, &apos;Courier New&apos;, system-ui, -apple-system, BlinkMacSystemFont, &apos;Segoe UI&apos;, Roboto, Inter, &apos;Helvetica Neue&apos;, Arial, sans-serif" font-size="22" text-anchor="middle" x="730.6093104573325" y="265.07278917228405">
Edge 2
</text>
</g>
<g>
<path d="M359.88640347289686,497.1176490739859 L481.75611545277303,497.1176490739859 C489.37297245151535,497.1176490739859 489.37297245151535,497.1176490739859 489.37297245151535,502.55826121594464 L489.37297245151535,546.0831583516148 C489.37297245151535,551.5237704935735 489.37297245151535,551.5237704935735 481.75611545277303,551.5237704935735 L359.88640347289686,551.5237704935735 C352.2695464741546,551.5237704935735 352.2695464741546,551.5237704935735 352.2695464741546,546.0831583516148 L352.2695464741546,502.55826121594464 C352.2695464741546,497.1176490739859 352.2695464741546,497.1176490739859 359.88640347289686,497.1176490739859 Z M367.5032604716391,511.2632406430787 L474.13925845403077,511.2632406430787 M367.5032604716391,519.9682200702127 L474.13925845403077,519.9682200702127 M367.5032604716391,528.6731994973467 L474.13925845403077,528.6731994973467 M367.5032604716391,537.3781789244807 L474.13925845403077,537.3781789244807" fill="#3d4a5c" filter="url(#drop-shadow-subtle-1f6d4a1634a2f708)" stroke="#68d391" stroke-width="1.8"/>
<text dominant-baseline="middle" fill="#000000" font-family="&apos;JetBrains Mono&apos;, ui-monospace, SFMono-Regular, Menlo, Monaco, Consolas, &apos;Liberation Mono&apos;, &apos;Courier New&apos;, system-ui, -apple-system, BlinkMacSystemFont, &apos;Segoe UI&apos;, Roboto, Inter, &apos;Helvetica Neue&apos;, Arial, sans-serif" font-size="22" text-anchor="middle" x="420.821259462835" y="633.0424158445323">
Edge 3
</text>
</g>
<g>
<path d="M661.701426384635,663.3624936117426 L783.5711383645114,663.3624936117426 C791.1879953632535,663.3624936117426 791.1879953632535,663.3624936117426 791.1879953632535,668.8031057537013 L791.1879953632535,712.3280028893714 C791.1879953632535,717.7686150313301 791.1879953632535,717.7686150313301 783.5711383645114,717.7686150313301 L661.701426384635,717.7686150313301 C654.0845693858928,717.7686150313301 654.0845693858928,717.7686150313301 654.0845693858928,712.3280028893714 L654.0845693858928,668.8031057537013 C654.0845693858928,663.3624936117426 654.0845693858928,663.3624936117426 661.701426384635,663.3624936117426 Z M669.3182833833773,677.5080851808353 L775.954281365769,677.5080851808353 M669.3182833833773,686.2130646079694 L775.954281365769,686.2130646079694 M669.3182833833773,694.9180440351033 L775.954281365769,694.9180440351033 M669.3182833833773,703.6230234622374 L775.954281365769,703.6230234622374" fill="#3d4a5c" filter="url(#drop-shadow-subtle-1f6d4a1634a2f708)" stroke="#68d391" stroke-width="1.8"/>
<text dominant-baseline="middle" fill="#000000" font-family="&apos;JetBrains Mono&apos;, ui-monospace, SFMono-Regular, Menlo, Monaco, Consolas, &apos;Liberation Mono&apos;, &apos;Courier New&apos;, system-ui, -apple-system, BlinkMacSystemFont, &apos;Segoe UI&apos;, Roboto, Inter, &apos;Helvetica Neue&apos;, Arial, sans-serif" font-size="22" text-anchor="middle" x="722.6362823745732" y="799.2872603822891">
Edge 4
</text>
</g>
<g>
<path d="M516.4517639808706,579.121831673432 L638.3214759607469,579.121831673432 C645.9383329594891,579.121831673432 645.9383329594891,579.121831673432 645.9383329594891,584.5624438153908 L645.9383329594891,628.0873409510609 C645.9383329594891,633.5279530930196 645.9383329594891,633.5279530930196 638.3214759607469,633.5279530930196 L516.4517639808706,633.5279530930196 C508.83490698212836,633.5279530930196 508.83490698212836,633.5279530930196 508.83490698212836,628.0873409510609 L508.83490698212836,584.5624438153908 C508.83490698212836,579.121831673432 508.83490698212836,579.121831673432 516.4517639808706,579.121831673432 Z M524.0686209796129,593.2674232425248 L630.7046189620046,593.2674232425248 M524.0686209796129,601.9724026696588 L630.7046189620046,601.9724026696588 M524.0686209796129,610.6773820967928 L630.7046189620046,610.6773820967928 M524.0686209796129,619.3823615239269 L630.7046189620046,619.3823615239269" fill="#3d4a5c" filter="url(#drop-shadow-subtle-1f6d4a1634a2f708)" stroke="#68d391" stroke-width="1.8"/>
<text dominant-baseline="middle" fill="#000000" font-family="&apos;JetBrains Mono&apos;, ui-monospace, SFMono-Regular, Menlo, Monaco, Consolas, &apos;Liberation Mono&apos;, &apos;Courier New&apos;, system-ui, -apple-system, BlinkMacSystemFont, &apos;Segoe UI&apos;, Roboto, Inter, &apos;Helvetica Neue&apos;, Arial, sans-serif" font-size="22" text-anchor="middle" x="577.3866199708087" y="715.0465984439785">
Edge 5
</text>
</g>
<g>
<path d="M201.09853085584973,505.66359032241024 L322.96824283572596,505.66359032241024 C330.5850998344682,505.66359032241024 330.5850998344682,505.66359032241024 330.5850998344682,511.104202464369 L330.5850998344682,554.6290996000391 C330.5850998344682,560.0697117419978 330.5850998344682,560.0697117419978 322.96824283572596,560.0697117419978 L201.09853085584973,560.0697117419978 C193.48167385710747,560.0697117419978 193.48167385710747,560.0697117419978 193.48167385710747,554.6290996000391 L193.48167385710747,511.104202464369 C193.48167385710747,505.66359032241024 193.48167385710747,505.66359032241024 201.09853085584973,505.66359032241024 Z M208.71538785459205,519.809181891503 L315.3513858369837,519.809181891503 M208.71538785459205,528.5141613186371 L315.3513858369837,528.5141613186371 M208.71538785459205,537.219140745771 L315.3513858369837,537.219140745771 M208.71538785459205,545.9241201729051 L315.3513858369837,545.9241201729051" fill="#3d4a5c" filter="url(#drop-shadow-subtle-1f6d4a1634a2f708)" stroke="#68d391" stroke-width="1.8"/>
<text dominant-baseline="middle" fill="#000000" font-family="&apos;JetBrains Mono&apos;, ui-monospace, SFMono-Regular, Menlo, Monaco, Consolas, &apos;Liberation Mono&apos;, &apos;Courier New&apos;, system-ui, -apple-system, BlinkMacSystemFont, &apos;Segoe UI&apos;, Roboto, Inter, &apos;Helvetica Neue&apos;, Arial, sans-serif" font-size="22" text-anchor="middle" x="262.03338684578785" y="641.5883570929567">
Edge 6
</text>
</g>
<defs>
<filter color-interpolation-filters="sRGB" height="140%" id="stack:drop-shadow-emphasis_glow-emphasis-49588c9b86831e01" width="140%" x="-20%" y="-20%">
<feDropShadow dx="2" dy="2.8" flood-color="#ffffff" flood-opacity="0.20800000000000002" in="SourceGraphic" result="ds1" stdDeviation="2.8"/>
<feGaussianBlur in="SourceGraphic" result="glow-blur-1" stdDeviation="3.5"/>
<feComponentTransfer in="glow-blur-1" result="glow-atten-1">
<feFuncA slope="0.17" type="linear"/>
</feComponentTransfer>
<feMerge result="glow-merged-1">
<feMergeNode in="glow-atten-1"/>
<feMergeNode in="ds1"/>
</feMerge>
</filter>
<filter color-interpolation-filters="sRGB" height="140%" id="drop-shadow-emphasis-9491038c28a08d94" width="140%" x="-20%" y="-20%">
<feDropShadow dx="2" dy="2.8" flood-color="#ffffff" flood-opacity="0.20800000000000002" stdDeviation="2.8"/>
</filter>
<filter color-interpolation-filters="sRGB" height="140%" id="glow-status-5672693c91e7e70b" width="140%" x="-20%" y="-20%">
<feGaussianBlur in="SourceGraphic" result="glow-blur-1" stdDeviation="3.25"/>
<feComponentTransfer in="glow-blur-1" result="glow-atten-1">
<feFuncA slope="0.187" type="linear"/>
</feComponentTransfer>
<feMerge result="glow-merged-1">
<feMergeNode in="glow-atten-1"/>
<feMergeNode in="SourceGraphic"/>
</feMerge>
</filter>
<filter color-interpolation-filters="sRGB" height="140%" id="drop-shadow-subtle-1f6d4a1634a2f708" width="140%" x="-20%" y="-20%">
<feDropShadow dx="1" dy="1.4" flood-color="#ffffff" flood-opacity="0.14300000000000002" stdDeviation="1.6"/>
</filter>
</defs>
<metadata id="netvis-render-metadata">{"warnings":[{"EffectIgnored":{"effect":"glow-status","why":"labels only glow for selection; apply glow-selection if you want selected labels to stand out"}}],"stats":{"effects_defined":4,"effects_applied":12,"deduplication_ratio":3.0}}</metadata>
</svg>